<svg width="1440" height="778" xmlns="http://www.w3.org/2000/svg"><g><path d="M-71,-60L-122,337L-44,78Z" fill="#f1feec" stroke="#f1feec"/><path d="M-71,-60L-44,78L101,60Z" fill="#f4fcf1" stroke="#f4fcf1"/><path d="M-71,-60L101,60L110,-70Z" fill="#f2faf0" stroke="#f2faf0"/><path d="M110,-70L101,60L218,-36Z" fill="#eaf7e7" stroke="#eaf7e7"/><path d="M110,-70L218,-36L346,-80Z" fill="#e2f4df" stroke="#e2f4df"/><path d="M110,-70L346,-80L1235,-126Z" fill="#bbe2bc" stroke="#bbe2bc"/><path d="M218,-36L101,60L240,21Z" fill="#e4f5e1" stroke="#e4f5e1"/><path d="M218,-36L240,21L346,-80Z" fill="#dff2db" stroke="#dff2db"/><path d="M346,-80L240,21L420,40Z" fill="#d7efd4" stroke="#d7efd4"/><path d="M346,-80L420,40L581,-38Z" fill="#c9e9c8" stroke="#c9e9c8"/><path d="M346,-80L581,-38L727,-41Z" fill="#bde3bd" stroke="#bde3bd"/><path d="M346,-80L727,-41L1000,-89Z" fill="#acdbb4" stroke="#acdbb4"/><path d="M346,-80L1000,-89L1235,-126Z" fill="#99d1aa" stroke="#99d1aa"/><path d="M581,-38L420,40L482,97Z" fill="#c0e6bf" stroke="#c0e6bf"/><path d="M581,-38L482,97L655,17Z" fill="#b8e2b8" stroke="#b8e2b8"/><path d="M581,-38L655,17L727,-41Z" fill="#b1ddb6" stroke="#b1ddb6"/><path d="M727,-41L655,17L772,-21Z" fill="#a9dab2" stroke="#a9dab2"/><path d="M727,-41L772,-21L1000,-89Z" fill="#9cd3ac" stroke="#9cd3ac"/><path d="M772,-21L655,17L771,94Z" fill="#a5d9ae" stroke="#a5d9ae"/><path d="M772,-21L771,94L944,60Z" fill="#98d3a6" stroke="#98d3a6"/><path d="M772,-21L944,60L1000,-89Z" fill="#95cda7" stroke="#95cda7"/><path d="M1000,-89L944,60L1086,31Z" fill="#8cc4a0" stroke="#8cc4a0"/><path d="M1000,-89L1086,31L1143,-78Z" fill="#86bd9b" stroke="#86bd9b"/><path d="M1000,-89L1143,-78L1235,-126Z" fill="#82b998" stroke="#82b998"/><path d="M1143,-78L1086,31L1219,77Z" fill="#7fb794" stroke="#7fb794"/><path d="M1143,-78L1219,77L1235,-126Z" fill="#80b292" stroke="#80b292"/><path d="M1235,-126L1219,77L1469,-81Z" fill="#80a88b" stroke="#80a88b"/><path d="M1235,-126L1469,-81L1631,-90Z" fill="#809b81" stroke="#809b81"/><path d="M1469,-81L1219,77L1477,69Z" fill="#7da082" stroke="#7da082"/><path d="M1469,-81L1477,69L1585,52Z" fill="#7e957e" stroke="#7e957e"/><path d="M1469,-81L1585,52L1631,-90Z" fill="#809080" stroke="#809080"/><path d="M1631,-90L1585,52L1602,188Z" fill="#7a8c79" stroke="#7a8c79"/><path d="M1631,-90L1602,188L1610,828Z" fill="#468047" stroke="#468047"/><path d="M-44,78L-122,337L-45,188Z" fill="#dffbdb" stroke="#dffbdb"/><path d="M-44,78L-45,188L17,187Z" fill="#e8fde2" stroke="#e8fde2"/><path d="M-44,78L17,187L101,60Z" fill="#e9fbe3" stroke="#e9fbe3"/><path d="M101,60L17,187L173,228Z" fill="#ddf8d6" stroke="#ddf8d6"/><path d="M101,60L173,228L240,21Z" fill="#dcf6d6" stroke="#dcf6d6"/><path d="M240,21L173,228L412,240Z" fill="#cbf2c4" stroke="#cbf2c4"/><path d="M240,21L412,240L420,40Z" fill="#caeec4" stroke="#caeec4"/><path d="M420,40L412,240L482,97Z" fill="#bde9b8" stroke="#bde9b8"/><path d="M482,97L412,240L538,170Z" fill="#b2e6ad" stroke="#b2e6ad"/><path d="M482,97L538,170L655,17Z" fill="#b2e3b0" stroke="#b2e3b0"/><path d="M655,17L538,170L656,202Z" fill="#a8dfa7" stroke="#a8dfa7"/><path d="M655,17L656,202L771,94Z" fill="#a1dba6" stroke="#a1dba6"/><path d="M771,94L656,202L779,209Z" fill="#93d899" stroke="#93d899"/><path d="M771,94L779,209L944,60Z" fill="#8fd39b" stroke="#8fd39b"/><path d="M944,60L779,209L1033,241Z" fill="#7fcb8d" stroke="#7fcb8d"/><path d="M944,60L1033,241L1086,31Z" fill="#7fc390" stroke="#7fc390"/><path d="M1086,31L1033,241L1163,253Z" fill="#6fba80" stroke="#6fba80"/><path d="M1086,31L1163,253L1219,77Z" fill="#73b685" stroke="#73b685"/><path d="M1219,77L1163,253L1310,220Z" fill="#68ad75" stroke="#68ad75"/><path d="M1219,77L1310,220L1477,69Z" fill="#73a579" stroke="#73a579"/><path d="M1477,69L1310,220L1409,234Z" fill="#6a9e6b" stroke="#6a9e6b"/><path d="M1477,69L1409,234L1602,188Z" fill="#6d9569" stroke="#6d9569"/><path d="M1477,69L1602,188L1585,52Z" fill="#759172" stroke="#759172"/><path d="M-45,188L-122,337L17,187Z" fill="#d4f8d1" stroke="#d4f8d1"/><path d="M17,187L-122,337L61,415Z" fill="#bdf2bd" stroke="#bdf2bd"/><path d="M17,187L61,415L173,228Z" fill="#bef1bb" stroke="#bef1bb"/><path d="M173,228L61,415L227,389Z" fill="#a6e8a8" stroke="#a6e8a8"/><path d="M173,228L227,389L373,375Z" fill="#a0e6a1" stroke="#a0e6a1"/><path d="M173,228L373,375L412,240Z" fill="#a6e8a4" stroke="#a6e8a4"/><path d="M412,240L373,375L512,424Z" fill="#88db8c" stroke="#88db8c"/><path d="M412,240L512,424L538,170Z" fill="#93de93" stroke="#93de93"/><path d="M538,170L512,424L656,202Z" fill="#8ddb8d" stroke="#8ddb8d"/><path d="M656,202L512,424L656,403Z" fill="#74d17c" stroke="#74d17c"/><path d="M656,202L656,403L779,209Z" fill="#7cd384" stroke="#7cd384"/><path d="M779,209L656,403L833,365Z" fill="#67cb75" stroke="#67cb75"/><path d="M779,209L833,365L918,364Z" fill="#60c872" stroke="#60c872"/><path d="M779,209L918,364L1033,241Z" fill="#65c577" stroke="#65c577"/><path d="M1033,241L918,364L1137,398Z" fill="#4ab462" stroke="#4ab462"/><path d="M1033,241L1137,398L1163,253Z" fill="#4cb163" stroke="#4cb163"/><path d="M1163,253L1137,398L1322,407Z" fill="#3ba153" stroke="#3ba153"/><path d="M1163,253L1322,407L1310,220Z" fill="#4aa259" stroke="#4aa259"/><path d="M1310,220L1322,407L1390,383Z" fill="#3f974c" stroke="#3f974c"/><path d="M1310,220L1390,383L1409,234Z" fill="#4e9955" stroke="#4e9955"/><path d="M1409,234L1390,383L1545,317Z" fill="#459048" stroke="#459048"/><path d="M1409,234L1545,317L1602,188Z" fill="#578e56" stroke="#578e56"/><path d="M1602,188L1545,317L1525,523Z" fill="#3d8243" stroke="#3d8243"/><path d="M1602,188L1525,523L1555,660Z" fill="#207334" stroke="#207334"/><path d="M1602,188L1555,660L1610,828Z" fill="#0c5c24" stroke="#0c5c24"/><path d="M-122,337L-132,873L-95,580Z" fill="#85c69e" stroke="#85c69e"/><path d="M-122,337L-95,580L61,415Z" fill="#9ee2af" stroke="#9ee2af"/><path d="M61,415L-95,580L52,553Z" fill="#8ad39f" stroke="#8ad39f"/><path d="M61,415L52,553L259,486Z" fill="#85d598" stroke="#85d598"/><path d="M61,415L259,486L227,389Z" fill="#8ddb9b" stroke="#8ddb9b"/><path d="M227,389L259,486L373,375Z" fill="#87da92" stroke="#87da92"/><path d="M373,375L259,486L362,545Z" fill="#74d087" stroke="#74d087"/><path d="M373,375L362,545L469,475Z" fill="#6dcd80" stroke="#6dcd80"/><path d="M373,375L469,475L512,424Z" fill="#71d080" stroke="#71d080"/><path d="M512,424L469,475L645,489Z" fill="#5cc671" stroke="#5cc671"/><path d="M512,424L645,489L656,403Z" fill="#5bc56f" stroke="#5bc56f"/><path d="M656,403L645,489L833,365Z" fill="#54c16c" stroke="#54c16c"/><path d="M833,365L645,489L880,533Z" fill="#40b861" stroke="#40b861"/><path d="M833,365L880,533L918,364Z" fill="#41b861" stroke="#41b861"/><path d="M918,364L880,533L990,548Z" fill="#2daa55" stroke="#2daa55"/><path d="M918,364L990,548L1137,398Z" fill="#30a956" stroke="#30a956"/><path d="M1137,398L990,548L1097,577Z" fill="#1c9647" stroke="#1c9647"/><path d="M1137,398L1097,577L1229,528Z" fill="#179143" stroke="#179143"/><path d="M1137,398L1229,528L1322,407Z" fill="#239446" stroke="#239446"/><path d="M1322,407L1229,528L1416,555Z" fill="#188238" stroke="#188238"/><path d="M1322,407L1416,555L1390,383Z" fill="#22853b" stroke="#22853b"/><path d="M1390,383L1416,555L1525,523Z" fill="#197831" stroke="#197831"/><path d="M1390,383L1525,523L1545,317Z" fill="#2c803a" stroke="#2c803a"/><path d="M-95,580L-132,873L-78,662Z" fill="#80b08c" stroke="#80b08c"/><path d="M-95,580L-78,662L52,553Z" fill="#7fc496" stroke="#7fc496"/><path d="M52,553L-78,662L112,681Z" fill="#74ba8b" stroke="#74ba8b"/><path d="M52,553L112,681L178,683Z" fill="#6db682" stroke="#6db682"/><path d="M52,553L178,683L259,486Z" fill="#71c287" stroke="#71c287"/><path d="M259,486L178,683L362,545Z" fill="#69bf7e" stroke="#69bf7e"/><path d="M362,545L178,683L387,661Z" fill="#5bb171" stroke="#5bb171"/><path d="M362,545L387,661L469,475Z" fill="#5aba71" stroke="#5aba71"/><path d="M469,475L387,661L520,706Z" fill="#4aab63" stroke="#4aab63"/><path d="M469,475L520,706L645,489Z" fill="#4bb263" stroke="#4bb263"/><path d="M645,489L520,706L665,697Z" fill="#36a052" stroke="#36a052"/><path d="M645,489L665,697L880,533Z" fill="#31a454" stroke="#31a454"/><path d="M880,533L665,697L858,717Z" fill="#209144" stroke="#209144"/><path d="M880,533L858,717L983,713Z" fill="#15883c" stroke="#15883c"/><path d="M880,533L983,713L990,548Z" fill="#169042" stroke="#169042"/><path d="M990,548L983,713L1097,577Z" fill="#0d863b" stroke="#0d863b"/><path d="M1097,577L983,713L1144,682Z" fill="#077830" stroke="#077830"/><path d="M1097,577L1144,682L1229,528Z" fill="#057d34" stroke="#057d34"/><path d="M1229,528L1144,682L1314,673Z" fill="#00702a" stroke="#00702a"/><path d="M1229,528L1314,673L1416,555Z" fill="#07702a" stroke="#07702a"/><path d="M1416,555L1314,673L1458,669Z" fill="#005f1e" stroke="#005f1e"/><path d="M1416,555L1458,669L1525,523Z" fill="#086220" stroke="#086220"/><path d="M1525,523L1458,669L1555,660Z" fill="#01571b" stroke="#01571b"/><path d="M-78,662L-132,873L123,796Z" fill="#799e79" stroke="#799e79"/><path d="M-78,662L123,796L112,681Z" fill="#72a97c" stroke="#72a97c"/><path d="M112,681L123,796L178,683Z" fill="#6ba473" stroke="#6ba473"/><path d="M178,683L123,796L214,832Z" fill="#689968" stroke="#689968"/><path d="M178,683L214,832L387,661Z" fill="#609f66" stroke="#609f66"/><path d="M387,661L214,832L415,881Z" fill="#578e54" stroke="#578e54"/><path d="M387,661L415,881L475,815Z" fill="#4d8a4c" stroke="#4d8a4c"/><path d="M387,661L475,815L520,706Z" fill="#489451" stroke="#489451"/><path d="M520,706L475,815L673,833Z" fill="#3d833e" stroke="#3d833e"/><path d="M520,706L673,833L665,697Z" fill="#358740" stroke="#358740"/><path d="M665,697L673,833L800,853Z" fill="#2a7833" stroke="#2a7833"/><path d="M665,697L800,853L858,717Z" fill="#237c35" stroke="#237c35"/><path d="M858,717L800,853L972,767Z" fill="#18722b" stroke="#18722b"/><path d="M858,717L972,767L983,713Z" fill="#12752e" stroke="#12752e"/><path d="M983,713L972,767L1144,682Z" fill="#0a6f2a" stroke="#0a6f2a"/><path d="M1144,682L972,767L1147,862Z" fill="#065f1e" stroke="#065f1e"/><path d="M1144,682L1147,862L1306,774Z" fill="#005416" stroke="#005416"/><path d="M1144,682L1306,774L1314,673Z" fill="#005c1c" stroke="#005c1c"/><path d="M1314,673L1306,774L1458,669Z" fill="#005315" stroke="#005315"/><path d="M1458,669L1306,774L1414,822Z" fill="#00460b" stroke="#00460b"/><path d="M1458,669L1414,822L1610,828Z" fill="#003903" stroke="#003903"/><path d="M1458,669L1610,828L1555,660Z" fill="#003f0b" stroke="#003f0b"/><path d="M-132,873L-70,1021L123,796Z" fill="#798677" stroke="#798677"/><path d="M123,796L-70,1021L122,1028Z" fill="#727a6f" stroke="#727a6f"/><path d="M123,796L122,1028L214,832Z" fill="#698266" stroke="#698266"/><path d="M214,832L122,1028L255,985Z" fill="#657562" stroke="#657562"/><path d="M214,832L255,985L415,881Z" fill="#5c7a59" stroke="#5c7a59"/><path d="M415,881L255,985L402,1033Z" fill="#556e52" stroke="#556e52"/><path d="M415,881L402,1033L544,942Z" fill="#496948" stroke="#496948"/><path d="M415,881L544,942L475,815Z" fill="#467446" stroke="#467446"/><path d="M475,815L544,942L673,833Z" fill="#3c723d" stroke="#3c723d"/><path d="M673,833L544,942L727,943Z" fill="#326537" stroke="#326537"/><path d="M673,833L727,943L800,853Z" fill="#286632" stroke="#286632"/><path d="M800,853L727,943L771,955Z" fill="#245c30" stroke="#245c30"/><path d="M800,853L771,955L978,993Z" fill="#1a542b" stroke="#1a542b"/><path d="M800,853L978,993L972,767Z" fill="#145b27" stroke="#145b27"/><path d="M972,767L978,993L1147,862Z" fill="#0a4f1f" stroke="#0a4f1f"/><path d="M1147,862L978,993L1108,1034Z" fill="#073e1b" stroke="#073e1b"/><path d="M1147,862L1108,1034L1229,960Z" fill="#003616" stroke="#003616"/><path d="M1147,862L1229,960L1306,774Z" fill="#003f11" stroke="#003f11"/><path d="M1306,774L1229,960L1374,963Z" fill="#00310c" stroke="#00310c"/><path d="M1306,774L1374,963L1414,822Z" fill="#003407" stroke="#003407"/><path d="M1414,822L1374,963L1598,1009Z" fill="#001b01" stroke="#001b01"/><path d="M1414,822L1598,1009L1610,828Z" fill="#001d00" stroke="#001d00"/><path d="M122,1028L402,1033L255,985Z" fill="#60735c" stroke="#60735c"/><path d="M402,1033L1108,1034L978,993Z" fill="#1d542c" stroke="#1d542c"/><path d="M402,1033L978,993L771,955Z" fill="#2a5a33" stroke="#2a5a33"/><path d="M402,1033L771,955L727,943Z" fill="#345f38" stroke="#345f38"/><path d="M402,1033L727,943L544,942Z" fill="#3c633d" stroke="#3c633d"/><path d="M1108,1034L1598,1009L1374,963Z" fill="#002308" stroke="#002308"/><path d="M1108,1034L1374,963L1229,960Z" fill="#002f10" stroke="#002f10"/></g></svg>